HIERARCHY
ROOT joint_Root
{
	OFFSET 0.0 0.0 0.0
	CHANNELS 6 Xposition Yposition Zposition Zrotation Xrotation Yrotation 
	JOINT Hips
	{
		OFFSET 4.5925 91.4895 -427.239
		CHANNELS 6 Xposition Yposition Zposition Zrotation Xrotation Yrotation 
		JOINT Spine
		{
			OFFSET 15.7357 0.0 0.0
			CHANNELS 6 Xposition Yposition Zposition Zrotation Xrotation Yrotation 
			JOINT Chest
			{
				OFFSET 8.98455 -0.406207 0.0
				CHANNELS 6 Xposition Yposition Zposition Zrotation Xrotation Yrotation 
				JOINT Neck
				{
					OFFSET 16.3773 0.0 0.0
					CHANNELS 6 Xposition Yposition Zposition Zrotation Xrotation Yrotation 
					JOINT Head
					{
						OFFSET 6.45672 0.0 0.0
						CHANNELS 6 Xposition Yposition Zposition Zrotation Xrotation Yrotation 
						End Site
						{
							OFFSET 0.0 0.0 0.0
						}
					}
				}
				JOINT Shoulder_L
				{
					OFFSET 12.9942 -0.242716 4.98039
					CHANNELS 6 Xposition Yposition Zposition Zrotation Xrotation Yrotation 
					JOINT UpperArm_L
					{
						OFFSET 5.34809 0.0 0.0
						CHANNELS 6 Xposition Yposition Zposition Zrotation Xrotation Yrotation 
						JOINT LowerArm_L
						{
							OFFSET 24.3286 1.87007e-05 0.0
							CHANNELS 6 Xposition Yposition Zposition Zrotation Xrotation Yrotation 
							JOINT Hand_L
							{
								OFFSET 22.2916 0.0 0.0
								CHANNELS 6 Xposition Yposition Zposition Zrotation Xrotation Yrotation 
								End Site
								{
									OFFSET 0.0 0.0 0.0
								}
							}
						}
					}
				}
				JOINT Shoulder_R
				{
					OFFSET 12.9945 -0.242716 -4.98039
					CHANNELS 6 Xposition Yposition Zposition Zrotation Xrotation Yrotation 
					JOINT UpperArm_R
					{
						OFFSET -5.34813 0.0 0.0
						CHANNELS 6 Xposition Yposition Zposition Zrotation Xrotation Yrotation 
						JOINT LowerArm_R
						{
							OFFSET -24.3289 0.000322201 0.0
							CHANNELS 6 Xposition Yposition Zposition Zrotation Xrotation Yrotation 
							JOINT Hand_R
							{
								OFFSET -22.2915 -0.000108084 0.0
								CHANNELS 6 Xposition Yposition Zposition Zrotation Xrotation Yrotation 
								End Site
								{
									OFFSET 0.0 0.0 0.0
								}
							}
						}
					}
				}
			}
		}
		JOINT UpperLeg_L
		{
			OFFSET -2.19248 -6.46944 0.0
			CHANNELS 6 Xposition Yposition Zposition Zrotation Xrotation Yrotation 
			JOINT LowerLeg_L
			{
				OFFSET 39.0811 0.0 -1.23785e-05
				CHANNELS 6 Xposition Yposition Zposition Zrotation Xrotation Yrotation 
				JOINT Foot_L
				{
					OFFSET 40.9854 0.0 -1.26872e-05
					CHANNELS 6 Xposition Yposition Zposition Zrotation Xrotation Yrotation 
					JOINT Toes_L
					{
						OFFSET 11.7543 0.0 0.0
						CHANNELS 6 Xposition Yposition Zposition Zrotation Xrotation Yrotation 
						End Site
						{
							OFFSET 0.0 0.0 0.0
						}
					}
				}
			}
		}
		JOINT UpperLeg_R
		{
			OFFSET -2.19251 6.46944 0.0
			CHANNELS 6 Xposition Yposition Zposition Zrotation Xrotation Yrotation 
			JOINT LowerLeg_R
			{
				OFFSET -39.0811 -0.00228153 -0.0401928
				CHANNELS 6 Xposition Yposition Zposition Zrotation Xrotation Yrotation 
				JOINT Foot_R
				{
					OFFSET -40.9854 0.0 0.0
					CHANNELS 6 Xposition Yposition Zposition Zrotation Xrotation Yrotation 
					JOINT Toes_R
					{
						OFFSET -11.7543 0.0 0.0
						CHANNELS 6 Xposition Yposition Zposition Zrotation Xrotation Yrotation 
						End Site
						{
							OFFSET 0.0 0.0 0.0
						}
					}
				}
			}
		}
	}
}
MOTION
Frames:	4
Frame Time:	0.0333333
0.000000 0.000000 0.000000 0.000000 0.000000 -0.000000 -1.096330 90.686700 -2.184010 89.866300 -3.082870 11.507700 15.735700 0.000005 -0.000001 85.909800 79.913100 -86.596900 8.984550 -0.406207 -0.000000 12.350900 -1.453150 -1.216760 16.377300 -0.000001 -0.000001 16.325400 -3.563060 2.719270 6.456720 -0.000001 -0.000000 -1.427860 -3.146070 0.562721 12.994200 -0.242716 4.980390 -89.603900 -1.363160 -73.795000 5.348090 -0.000007 -0.000001 -70.893400 -8.590380 -77.166200 24.328600 0.000019 0.000005 42.283100 -8.782640 -99.531100 22.291600 -0.000001 0.000005 21.200600 5.110230 4.878240 12.994500 -0.242716 -4.980390 89.836300 0.880170 -79.464300 -5.348130 -0.000001 -0.000004 -66.467100 -9.073540 -75.732300 -24.328900 0.000322 -0.000009 19.277900 -5.161840 -104.426000 -22.291500 -0.000108 -0.000004 24.841000 5.338710 -1.041230 -2.192480 -6.469440 -0.000000 -175.047000 -13.239400 -1.112160 39.081100 -0.000007 -0.000012 -0.169433 0.269574 32.150500 40.985400 -0.000006 -0.000013 0.794263 5.530200 -69.306100 11.754300 -0.000000 0.000003 -0.000184 -0.001724 -16.642800 -2.192510 6.469440 -0.000001 173.932000 20.458300 -179.516000 -39.081100 -0.002282 -0.040193 -0.212083 0.348649 31.706400 -40.985400 0.000008 0.000006 4.545290 14.754100 -70.565700 -11.754300 -0.000006 -0.000006 -0.002369 -0.033245 -17.925000
0.000000 0.000000 0.000000 0.000000 0.000000 -0.000000 -1.100660 90.686400 -2.188780 89.860900 -3.073620 11.542700 15.735700 0.000005 -0.000001 85.936300 79.902700 -86.630700 8.984550 -0.406207 -0.000000 12.372200 -1.445770 -1.231920 16.377300 -0.000001 -0.000001 16.339700 -3.535870 2.681970 6.456720 -0.000001 -0.000000 -1.430370 -3.135390 0.547162 12.994200 -0.242716 4.980390 -89.600800 -1.371360 -73.769300 5.348090 -0.000007 -0.000001 -70.935500 -8.498920 -77.256900 24.328600 0.000019 0.000005 42.334200 -8.770440 -99.501500 22.291600 -0.000001 0.000005 21.218500 5.109380 4.897820 12.994500 -0.242716 -4.980390 89.833800 0.895907 -79.493400 -5.348130 -0.000001 -0.000004 -66.534100 -9.053820 -75.741100 -24.328900 0.000322 -0.000009 19.246000 -5.149650 -104.418000 -22.291500 -0.000108 -0.000004 24.860900 5.337540 -1.006890 -2.192480 -6.469440 -0.000000 -175.025000 -13.198200 -1.079780 39.081100 -0.000007 -0.000012 -0.174624 0.277826 32.151300 40.985400 -0.000006 -0.000013 0.783284 5.539430 -69.303100 11.754300 -0.000000 0.000003 -0.000180 -0.001692 -16.641600 -2.192510 6.469440 -0.000001 173.926000 20.486700 -179.479000 -39.081100 -0.002282 -0.040193 -0.211295 0.347384 31.705600 -40.985400 0.000008 0.000006 4.557860 14.767100 -70.565000 -11.754300 -0.000006 -0.000006 -0.002419 -0.033845 -17.949400
0.000000 0.000000 0.000000 0.000000 0.000000 -0.000000 -1.115650 90.685700 -2.198680 89.830600 -3.062700 11.542100 15.735700 0.000005 -0.000001 85.978500 79.906100 -86.667100 8.984550 -0.406207 -0.000000 12.366600 -1.430330 -1.222010 16.377300 -0.000001 -0.000001 16.335800 -3.523220 2.637750 6.456720 -0.000001 -0.000000 -1.403420 -3.114900 0.489272 12.994200 -0.242716 4.980390 -89.601200 -1.368470 -73.749700 5.348090 -0.000007 -0.000001 -70.935800 -8.442460 -77.332200 24.328600 0.000019 0.000005 42.306300 -8.753810 -99.493000 22.291600 -0.000001 0.000005 21.287300 5.110680 4.867700 12.994500 -0.242716 -4.980390 89.836900 0.877361 -79.466100 -5.348130 -0.000001 -0.000004 -66.626300 -8.995580 -75.784700 -24.328900 0.000322 -0.000009 19.233600 -5.129890 -104.374000 -22.291500 -0.000108 -0.000004 24.993100 5.339870 -1.075450 -2.192480 -6.469440 -0.000000 -174.992000 -13.184600 -1.105380 39.081100 -0.000007 -0.000012 -0.174513 0.277378 32.176500 40.985400 -0.000006 -0.000013 0.774768 5.528900 -69.301200 11.754300 -0.000000 0.000003 -0.000180 -0.001696 -16.641700 -2.192510 6.469440 -0.000001 173.965000 20.485500 -179.474000 -39.081100 -0.002282 -0.040193 -0.211167 0.347351 31.692700 -40.985400 0.000008 0.000006 4.554390 14.739800 -70.556100 -11.754300 -0.000006 -0.000006 -0.002404 -0.033667 -17.942100
0.000000 0.000000 0.000000 0.000000 0.000000 -0.000000 -1.117020 90.688600 -2.206270 89.852500 -3.054740 11.552900 15.735700 0.000005 -0.000001 85.978600 79.901600 -86.682100 8.984550 -0.406207 -0.000000 12.375300 -1.431570 -1.251620 16.377300 -0.000001 -0.000001 16.330900 -3.505520 2.604290 6.456720 -0.000001 -0.000000 -1.401940 -3.085420 0.458672 12.994200 -0.242716 4.980390 -89.602700 -1.360620 -73.720600 5.348090 -0.000007 -0.000001 -70.950100 -8.429710 -77.416700 24.328600 0.000019 0.000005 42.294100 -8.766270 -99.510200 22.291600 -0.000001 0.000005 21.261100 5.111220 4.855210 12.994500 -0.242716 -4.980390 89.835600 0.883909 -79.465600 -5.348130 -0.000001 -0.000004 -66.664300 -8.992850 -75.857700 -24.328900 0.000322 -0.000009 19.316000 -5.144360 -104.350000 -22.291500 -0.000108 -0.000004 25.131500 5.337330 -1.000790 -2.192480 -6.469440 -0.000000 -175.020000 -13.181500 -1.089340 39.081100 -0.000007 -0.000012 -0.171587 0.272987 32.151900 40.985400 -0.000006 -0.000013 0.771879 5.509560 -69.283700 11.754300 -0.000000 0.000003 -0.000167 -0.001587 -16.637700 -2.192510 6.469440 -0.000001 173.936000 20.523700 -179.470000 -39.081100 -0.002282 -0.040193 -0.209575 0.344745 31.694900 -40.985400 0.000008 0.000006 4.571200 14.775600 -70.553600 -11.754300 -0.000006 -0.000006 -0.002432 -0.033996 -17.955500
